<?xml version="1.0" encoding="UTF-8"?><svg id="a" xmlns="http://www.w3.org/2000/svg" viewBox="0 0 100 100"><path d="M17.699,17.523H82.301V82.477H17.699V17.523Zm5.879,6.061v52.89h52.894V23.584H23.578Z"/><path d="M29.154,35.16c.539-3.585,2.469-5.896,6.175-5.737,3.66,.157,5.797,2.491,5.615,6.161-.169,3.404-2.355,5.507-5.795,5.501-3.709-.007-5.571-2.33-5.995-5.926Z"/><path d="M44.016,50.142c.459-3.59,2.341-5.933,6.05-5.858,3.67,.074,5.837,2.365,5.742,6.038-.089,3.422-2.247,5.552-5.672,5.625-3.705,.079-5.62-2.208-6.12-5.804Z"/><path d="M64.807,59.009c3.591,.461,5.935,2.342,5.861,6.051-.073,3.671-2.366,5.841-6.036,5.743-3.413-.092-5.55-2.238-5.625-5.671-.081-3.715,2.214-5.614,5.8-6.122Z"/></svg>