<?xml version="1.0" encoding="UTF-8"?><svg id="a" xmlns="http://www.w3.org/2000/svg" viewBox="0 0 100 100"><path d="M82.414,82.861H17.646V17.37H82.414V82.861Zm-5.949-6.004V23.386H23.595v53.47h52.87Z"/><path d="M41.175,34.973c-.461,3.632-2.347,6.002-6.051,5.922-3.661-.079-5.837-2.387-5.737-6.107,.093-3.461,2.247-5.608,5.672-5.683,3.712-.081,5.612,2.241,6.116,5.868Z"/><path d="M58.933,35.322c.49-3.912,2.369-6.282,6.077-6.21,3.669,.071,5.838,2.384,5.747,6.097-.085,3.46-2.24,5.605-5.664,5.695-3.729,.098-5.538-2.316-6.16-5.582Z"/><path d="M41.175,64.98c-.435,3.632-2.301,6.018-6.008,5.966-3.664-.051-5.851-2.343-5.782-6.063,.065-3.467,2.209-5.622,5.629-5.726,3.712-.113,5.626,2.201,6.16,5.823Z"/><path d="M70.891,65.024c-.461,3.632-2.347,6.002-6.051,5.922-3.661-.079-5.837-2.387-5.737-6.107,.093-3.461,2.247-5.608,5.672-5.683,3.712-.081,5.612,2.241,6.116,5.868Z"/></svg>