<?xml version="1.0" encoding="UTF-8"?><svg id="a" xmlns="http://www.w3.org/2000/svg" viewBox="0 0 100 100"><path d="M82.47,82.474H17.759V17.769H82.47V82.474Zm-58.817-6.069h52.83V23.581H23.654v52.825Z"/><path d="M29.325,35.604c.427-3.876,2.267-6.245,5.973-6.236,3.671,.009,5.863,2.264,5.837,5.932-.024,3.43-2.159,5.563-5.568,5.72-3.741,.172-5.559-2.214-6.242-5.416Z"/><path d="M59.045,35.258c.436-3.588,2.299-5.941,6.005-5.89,3.668,.051,5.842,2.325,5.774,5.994-.064,3.423-2.212,5.557-5.628,5.654-3.702,.106-5.626-2.172-6.151-5.758Z"/><path d="M56.145,49.889c-.561,3.802-2.486,6.117-6.185,5.966-3.648-.149-5.798-2.465-5.623-6.139,.162-3.404,2.337-5.503,5.772-5.51,3.713-.008,5.508,2.374,6.036,5.683Z"/><path d="M29.354,64.791c.539-3.581,2.466-5.889,6.168-5.73,3.655,.157,5.79,2.489,5.608,6.154-.169,3.4-2.352,5.501-5.788,5.495-3.705-.007-5.564-2.327-5.988-5.919Z"/><path d="M70.958,64.949c-.529,3.587-2.454,5.902-6.153,5.751-3.648-.149-5.798-2.465-5.623-6.139,.162-3.404,2.337-5.503,5.772-5.51,3.713-.008,5.564,2.318,6.004,5.899Z"/></svg>