<?xml version="1.0" encoding="UTF-8"?><svg id="a" xmlns="http://www.w3.org/2000/svg" viewBox="0 0 100 100"><path d="M82.354,82.69H17.646V17.31H82.354V82.69Zm-5.806-59.42H23.719v53.374h52.83V23.27Z"/><path d="M29.211,34.695c.768-3.738,2.785-6.009,6.483-5.651,3.626,.352,5.672,2.789,5.298,6.494-.346,3.418-2.619,5.441-6.052,5.263-3.701-.192-5.383-2.689-5.729-6.106Z"/><path d="M58.933,64.725c.59-3.592,2.545-5.907,6.244-5.693,3.647,.211,5.762,2.594,5.526,6.297-.218,3.427-2.424,5.531-5.864,5.473-3.699-.062-5.539-2.422-5.906-6.077Z"/></svg>