<svg width="688" height="82" viewBox="0 0 688 82" fill="none" xmlns="http://www.w3.org/2000/svg">
<path d="M46.7226 68.3665L46.2991 67.9258C45.6638 67.3749 45.0285 66.0528 45.0285 65.0611V56.5773C45.0285 55.5857 45.0285 54.0432 45.0285 53.0515V28.3713C45.0285 27.3797 44.499 26.1677 43.7578 25.6168L36.2398 19.5569C35.4986 19.006 35.3927 17.9042 36.0281 17.2431L42.2754 10.7425C42.9107 10.0814 42.9107 8.97965 42.2754 8.20839L34.8633 0.495812C34.228 -0.165271 33.1691 -0.165271 32.4279 0.495812L25.0158 8.20839C24.3805 8.97965 24.3805 10.0814 25.0158 10.7425L31.0514 17.0228C31.7926 17.6838 31.6867 18.7857 30.9455 19.3366L23.9569 24.515C23.2157 25.0659 22.5804 24.7354 22.5804 23.7437V10.412C22.5804 9.53055 22.051 8.20839 21.3098 7.65749L12.3094 0.495812C11.5682 -0.0550924 10.4034 -0.0550924 9.66219 0.495812L0.555907 7.21678C-0.185302 7.76767 -0.185302 8.75929 0.555907 9.31019L7.33268 14.709C8.07388 15.3701 8.70921 16.5821 8.70921 17.4635C8.70921 18.3449 8.70921 19.8874 8.70921 20.8791V72.5534C8.70921 73.545 9.34453 74.757 10.0857 75.3079L12.5211 77.0707C13.3682 77.6216 14.6389 77.6216 15.3801 77.0707L24.1687 70.5701C24.9099 70.0192 24.9099 69.0276 24.2746 68.3665L23.851 67.9258C23.1098 67.3749 22.5804 66.0528 22.5804 65.0611V56.5773C22.5804 55.5857 22.5804 54.0432 22.5804 53.0515V28.7018C22.5804 27.7102 23.2157 27.3797 23.9569 28.0407L29.8866 32.6683C30.6278 33.3294 31.1572 34.5414 31.1572 35.533V42.1438C31.1572 43.1354 31.1572 44.6779 31.1572 45.6695V72.5534C31.1572 73.545 31.7926 74.757 32.6397 75.3079L35.0751 77.0707C35.8163 77.6216 37.0869 77.6216 37.8281 77.0707L46.6168 70.5701C47.358 70.0192 47.4638 69.0276 46.7226 68.3665Z" fill="#CC2A2F"/>
<path d="M115.113 68.3665L114.69 67.9258C113.948 67.3749 113.419 66.0528 113.419 65.0611V37.406C113.419 36.5246 113.419 35.6431 113.419 35.6431V33.8803C113.419 32.8887 112.784 31.5665 112.043 31.0156L103.148 23.8539C102.407 23.303 101.136 23.303 100.395 23.8539L93.7241 28.9222C92.9828 29.4731 91.8181 29.4731 91.0769 28.812L84.8295 23.8539C84.0883 23.303 82.9236 23.303 82.1824 23.8539L73.0761 30.6851C72.3349 31.236 72.3349 32.1174 73.0761 32.7785L79.8529 38.1773C80.5941 38.7282 81.2294 40.0503 81.2294 41.042V68.6971C81.2294 69.5785 81.2294 70.4599 81.2294 70.4599V72.1126V72.5534C81.2294 73.545 81.8647 74.757 82.6059 75.3079L85.1472 77.0707C85.8884 77.6216 87.1591 77.6216 87.9003 77.0707L96.6889 70.5701C97.4301 70.0192 97.536 69.0276 96.7948 68.3665L96.3712 67.9258C95.7359 67.3749 95.1006 66.0528 95.1006 65.0611V37.5162C95.1006 36.5246 95.7359 36.194 96.4771 36.8551L98.1713 38.1773C98.9125 38.7282 99.5478 40.0503 99.5478 41.042V68.6971C99.5478 69.5785 99.5478 70.4599 99.5478 70.4599V72.2228V72.5534C99.5478 73.545 100.183 74.757 100.924 75.3079L103.36 77.0707C104.207 77.6216 105.372 77.6216 106.219 77.0707L115.007 70.5701C115.749 70.0192 115.749 69.0276 115.113 68.3665Z" fill="#CC2A2F"/>
<path d="M177.759 68.3665L177.335 67.9258C176.594 67.3749 176.064 66.0528 176.064 65.0611V63.0779C176.064 62.0863 176.064 60.4336 176.064 59.5522V29.5833C176.064 28.5916 176.064 26.939 176.064 26.0575V24.4048C176.064 23.4132 175.323 22.8623 174.476 23.303L163.782 27.6C162.829 27.9306 162.193 29.0324 162.193 30.024V62.7474C162.193 63.739 161.558 63.9593 160.923 63.2983L158.911 61.4252C158.275 60.8743 157.64 59.5522 157.64 58.5605V34.5414V32.1174C157.64 31.6767 157.111 30.9054 156.369 30.3545L147.369 23.1928C146.628 22.6419 145.463 22.6419 144.722 23.1928L135.616 30.024C134.874 30.5749 134.874 31.4563 135.616 32.1174L142.392 37.5162C143.134 38.0671 143.769 39.3893 143.769 40.2707V60.4336V63.9593C143.769 65.1713 143.769 66.7138 143.769 66.7138L148.428 71.121L154.675 76.9606C155.416 77.6216 155.946 78.1725 155.946 78.1725C156.052 78.1725 156.158 78.0624 156.264 77.9522C156.475 77.7318 157.111 77.0707 157.852 76.5198L160.817 73.9857C161.558 73.4348 162.193 73.2144 162.193 73.6552C162.193 73.9857 162.829 74.757 163.57 75.3079L166.005 77.0707C166.852 77.6216 168.017 77.6216 168.758 77.0707L177.547 70.5701C178.394 70.0192 178.394 69.0276 177.759 68.3665Z" fill="#CC2A2F"/>
<path d="M224.796 23.303L224.585 23.0827C224.373 22.9725 223.632 23.303 222.89 23.8539L213.467 31.0156L204.996 37.1857C204.254 37.7366 203.619 38.9485 203.619 39.9402V64.951C203.619 65.9426 204.148 67.2647 204.89 67.9258L214.631 77.0707C215.267 77.7318 216.431 77.6216 216.961 76.8504L224.055 68.8073C224.691 68.036 224.585 66.9342 223.949 66.2731L218.761 61.4252C218.02 60.8743 217.49 59.5522 217.49 58.5605V37.6264C217.49 36.7449 218.02 36.4144 218.761 37.1857C222.043 40.7114 224.585 44.7881 223.208 48.5342C223.208 48.5342 222.89 49.1953 222.573 50.0767C222.255 50.9581 222.573 51.1785 223.208 50.6276L224.479 49.5258C228.608 46 231.044 41.042 231.044 36.0839C231.044 31.236 228.82 26.7186 224.796 23.303Z" fill="#CC2A2F"/>
<path d="M290.229 46.2204L282.605 40.1605C281.864 39.4994 281.758 38.5078 282.393 37.8467L288.535 31.4563C289.276 30.7952 289.276 29.5833 288.535 28.9222L281.123 21.2096C280.487 20.5485 279.428 20.5485 278.793 21.2096L274.452 25.727C273.71 26.3881 273.181 26.1677 273.181 25.1761V18.1246C273.181 17.133 272.652 15.921 271.91 15.2599L262.91 8.20839C262.169 7.54731 261.004 7.54731 260.263 8.09822L251.157 14.9294C250.415 15.4803 250.415 16.4719 251.157 17.0228L257.933 22.4216C258.674 22.9725 259.31 24.2946 259.31 25.2863V72.5534C259.31 73.545 259.945 74.757 260.686 75.3079L263.122 77.0707C263.969 77.6216 265.239 77.6216 265.981 77.0707L274.769 70.5701C275.51 70.0192 275.511 69.0276 274.875 68.3665L274.452 67.9258C273.71 67.3749 273.181 66.0528 273.181 65.0611V56.5773C273.181 55.5857 273.181 54.0432 273.181 53.0515V52.6108C273.181 51.6192 273.816 51.3989 274.558 51.9498L276.358 53.3821C277.099 53.933 277.734 55.2551 277.734 56.2468V80.927C277.734 81.9186 278.369 82.2492 279.111 81.8085L290.123 74.5366C290.97 73.9857 291.605 72.7737 291.605 71.8923V49.0851C291.605 48.0935 290.97 46.8815 290.229 46.2204ZM277.311 40.0503L274.558 42.1438C273.816 42.6947 273.181 42.3641 273.181 41.3725V35.0922C273.181 34.2108 273.71 33.9905 274.452 34.6515L277.416 37.8467C278.158 38.5078 278.052 39.4994 277.311 40.0503Z" fill="#CC2A2F"/>
<path d="M341.182 66.2731L335.993 61.4252C335.252 60.8743 334.723 59.5522 334.723 58.5605V3.8012C334.723 2.80958 334.088 2.47904 333.346 3.14012L330.699 5.12336L322.228 11.2934C321.487 11.8443 320.852 13.1665 320.852 14.0479V64.951C320.852 65.9426 321.381 67.2647 322.122 67.9258L331.864 77.0707C332.499 77.7318 333.664 77.6216 334.193 76.8504L341.288 68.8073C341.923 68.036 341.817 66.9342 341.182 66.2731Z" fill="#CC2A2F"/>
<path d="M385.197 23.303L384.879 23.0827C384.773 22.8623 384.032 23.1928 383.291 23.8539L377.785 27.9306L375.455 29.6934L373.761 31.0156L365.29 37.1857C364.549 37.7366 363.914 38.9485 363.914 39.9402V64.951C363.914 65.9426 364.443 67.2647 365.184 67.9258L374.926 77.0707C375.561 77.7318 376.726 77.6216 377.256 76.8504L384.35 68.8073C384.985 68.036 384.879 66.9342 384.244 66.2731L379.797 62.1965C379.161 61.5354 379.267 60.7641 380.114 60.4336C388.797 56.5773 391.868 50.848 392.821 46.3306C394.621 38.9485 391.656 30.024 385.197 23.303ZM383.185 53.0515C382.55 55.4755 381.279 57.3486 379.267 58.5605C378.526 59.1114 377.785 58.6707 377.785 57.6791V38.5078C377.785 37.5162 378.314 37.406 378.844 38.1773C382.55 43.4659 384.138 48.7545 383.185 53.0515Z" fill="#CC2A2F"/>
<path d="M449.191 31.0156L440.296 23.8539C439.555 23.303 438.284 23.303 437.543 23.8539L433.52 26.939C432.778 27.4898 432.143 27.1593 432.143 26.1677V3.8012C432.143 2.80958 431.508 2.47904 430.766 3.14012L428.119 5.12336L419.648 11.2934C418.907 11.8443 418.272 13.1665 418.272 14.0479V67.8156C418.272 68.4767 418.907 69.4683 419.648 70.0192L428.543 77.1809C429.284 77.7318 430.025 78.1725 430.025 78.0624C430.131 77.9522 430.343 77.9522 430.343 78.0624C430.449 78.1725 430.766 77.9522 431.084 77.5115C431.402 77.1809 432.355 76.4097 433.096 75.8588L439.449 71.0109L440.72 70.0192L449.191 63.8492C449.932 63.2983 450.567 62.527 450.567 62.0863V32.6683C450.567 32.3378 449.932 31.5665 449.191 31.0156ZM436.696 39.4994V62.7474C436.696 63.739 436.061 63.9593 435.426 63.2983L433.414 61.4252C432.672 60.7641 432.143 59.5522 432.143 58.5605V37.406C432.143 36.4144 432.778 36.0839 433.52 36.7449L435.32 38.1773C436.061 38.7282 436.696 39.3893 436.696 39.4994Z" fill="#CC2A2F"/>
<path d="M507.917 31.0156L499.022 23.8539C498.281 23.303 497.01 23.303 496.269 23.8539L488.116 30.024L486.845 31.0156L478.374 37.1857C477.633 37.7366 476.998 38.9485 476.998 39.9402V66.7138L481.657 71.121L487.904 76.9606C488.645 77.6216 489.175 78.1725 489.175 78.1725C489.281 78.1725 489.387 78.0624 489.492 77.9522C489.704 77.7318 490.339 77.0707 491.081 76.5198L507.917 62.4168C508.658 61.7558 509.293 60.4336 509.293 59.442V33.8803C509.293 32.8887 508.658 31.5665 507.917 31.0156ZM495.422 41.042V62.7474C495.422 63.739 494.787 63.9593 494.151 63.2983L492.14 61.4252C491.398 60.7641 490.869 59.5522 490.869 58.5605V37.406C490.869 36.4144 491.504 36.0839 492.245 36.7449L494.046 38.1773C494.787 38.7282 495.422 40.0503 495.422 41.042Z" fill="#CC2A2F"/>
<path d="M574.067 68.3665L573.644 67.9258C572.902 67.3749 572.373 66.0528 572.373 65.0611V37.406C572.373 36.5246 572.373 35.6431 572.373 35.6431V33.8803C572.373 32.8887 571.738 31.5665 570.996 31.0156L562.102 23.8539C561.361 23.303 560.09 23.303 559.349 23.8539L552.678 28.9222C551.937 29.4731 550.772 29.4731 550.031 28.812L543.783 23.8539C543.042 23.303 541.877 23.303 541.136 23.8539L532.03 30.6851C531.289 31.236 531.289 32.1174 532.03 32.7785L538.807 38.1773C539.548 38.7282 540.183 40.0503 540.183 41.042V68.6971C540.183 69.5785 540.183 70.4599 540.183 70.4599V72.1126V72.5534C540.183 73.545 540.819 74.757 541.56 75.3079L544.101 77.0707C544.842 77.6216 546.113 77.6216 546.854 77.0707L555.643 70.5701C556.384 70.0192 556.49 69.0276 555.749 68.3665L555.325 67.9258C554.69 67.3749 554.055 66.0528 554.055 65.0611V37.5162C554.055 36.5246 554.69 36.194 555.431 36.8551L557.125 38.1773C557.867 38.7282 558.502 40.0503 558.502 41.042V68.6971C558.502 69.5785 558.502 70.4599 558.502 70.4599V72.2228V72.5534C558.502 73.545 559.137 74.757 559.878 75.3079L562.314 77.0707C563.161 77.6216 564.326 77.6216 565.173 77.0707L573.961 70.5701C574.702 70.0192 574.703 69.0276 574.067 68.3665Z" fill="#CC2A2F"/>
<path d="M618.5 23.303L618.182 23.0827C618.076 22.8623 617.335 23.1928 616.594 23.8539L611.088 27.9306L608.758 29.6934L607.064 31.0156L598.593 37.1857C597.852 37.7366 597.217 38.9485 597.217 39.9402V64.951C597.217 65.9426 597.746 67.2647 598.487 67.9258L608.229 77.0707C608.864 77.7318 610.029 77.6216 610.558 76.8504L617.653 68.8073C618.288 68.036 618.182 66.9342 617.547 66.2731L613.1 62.1965C612.464 61.5354 612.57 60.7641 613.417 60.4336C622.1 56.5773 625.171 50.848 626.124 46.3306C627.924 38.9485 624.959 30.024 618.5 23.303ZM616.488 53.0515C615.853 55.4755 614.582 57.3486 612.57 58.5605C611.829 59.1114 611.088 58.6707 611.088 57.6791V38.5078C611.088 37.5162 611.617 37.406 612.147 38.1773C615.853 43.4659 617.441 48.7545 616.488 53.0515Z" fill="#CC2A2F"/>
<path d="M686.729 43.5761L685.565 42.4743C684.929 41.8132 683.659 41.703 682.811 42.1438L673.07 47.8731C672.223 48.424 671.164 48.3138 670.634 47.8731C670.105 47.3222 669.576 46.1102 669.576 45.1186V36.5246C669.576 35.6431 670.317 35.0922 671.27 35.4228L679.847 38.5078C680.694 38.7282 681.858 38.3976 682.388 37.5162L687.576 29.5833C688.106 28.7018 687.788 27.8204 686.835 27.4898L675.505 23.4132C674.658 23.1928 673.493 23.5234 672.858 24.2946L670.634 27.3797C670.105 28.1509 669.576 28.0407 669.576 27.0491V24.2946C669.576 23.303 668.94 22.8623 668.093 23.303L657.293 28.9222C656.446 29.2527 655.704 30.4647 655.704 31.4563V51.6192C655.704 52.6108 656.34 53.933 656.975 54.5941L658.14 55.6959C658.881 56.2468 660.046 56.4671 660.893 55.9162L670.74 50.2971C671.482 49.7462 672.646 49.7462 673.176 50.2971C673.705 50.848 674.129 51.9498 674.129 52.9414V64.0695C674.129 65.0611 673.388 65.612 672.54 65.2815L660.787 61.0947C659.834 60.7641 658.669 61.2049 658.14 61.9761L652.422 69.7989C651.787 70.5701 652.104 71.4516 652.951 71.7821L668.517 77.4013C669.47 77.6216 670.846 77.5115 671.587 77.0707L673.811 75.7486C674.658 75.3079 676.035 74.6468 676.988 74.4264L686.412 71.7821C687.259 71.5618 688 70.5701 688 69.5785V46.5509C688 45.5593 687.471 44.2372 686.729 43.5761Z" fill="#CC2A2F"/>
</svg>
