<?xml version="1.0" encoding="UTF-8"?><svg id="a" xmlns="http://www.w3.org/2000/svg" viewBox="0 0 113 58"><defs><style>.b{fill:#f9f8f7;}.c{fill:#f8f7f6;}.d{fill:#674f3e;}.e{fill:#f4f2f1;}.f{fill:#fcfcfb;}.g{fill:#fff;}.h{fill:#fbfaf9;}.i{fill:#fbfbfa;}.j{fill:#e5e2df;}.k{fill:#faf9f8;}.l{fill:#fcfbfa;}.m{fill:#fdfdfc;}.n{fill:#fdfcfc;}.o{fill:#664d3d;}.p{fill:#745e4e;}.q{fill:#6c5444;}.r{fill:#7e6a5b;}.s{fill:#6b5443;}.t{fill:#867366;}.u{fill:#b5a9a1;}.v{fill:#a19287;}.w{fill:#8d7c6f;}.x{fill:#c2b9b2;}.y{fill:#b5aaa2;}.z{fill:#b7aba3;}.aa{fill:#cec6c1;}.ab{fill:#a5978d;}.ac{fill:#ab9d94;}.ad{fill:#b1a49c;}.ae{fill:#d7d1cc;}.af{fill:#afa29a;}.ag{fill:#bcb1aa;}.ah{fill:#aa9d93;}.ai{fill:#beb5ad;}.aj{fill:#c6beb7;}.ak{fill:#c9c1bb;}.al{fill:#cfc8c3;}.am{fill:#c5bbb5;}.an{fill:#c7beb8;}.ao{fill:#42240f;}.ap{fill:#6e5747;}.aq{fill:#9b8b7f;}.ar{fill:#6f5848;}.as{fill:#a3948a;}.at{fill:#705949;}.au{fill:#776152;}.av{fill:#836f61;}</style></defs><path class="g" d="m112.765,52.9c.887,4.14-.732,5.582-4.952,4.962-2.579-.379-5.261-.07-7.897-.07-2.636-1.487-5.271-1.487-7.907,0-29.487,0-58.975-.054-88.462.083-2.95.014-3.576-.585-3.546-3.509C.177,37.246.146,20.121.022,2.999.004.551.582-.006,3.053,0c35.582.092,71.165.092,106.747,0,2.471-.006,3.087.545,3.033,3-.18,8.15-.068,16.306-.068,24.46-1.282,1.305-1.282,2.609,0,3.914v18.591c-1.279.978-1.279,1.957,0,2.935Z"/><path class="i" d="m92.009,57.793c2.618-2.798,5.289-2.798,7.907,0h-7.907Z"/><path class="e" d="m112.765,52.9c-1.046-.13-2.54.304-2.701-1.24-.209-2.01,1.528-1.534,2.701-1.695v2.935Z"/><path class="l" d="m112.765,31.374c-1.372-.105-1.995-.835-1.908-2.196.077-1.197.856-1.599,1.908-1.718v3.914Z"/><path class="ao" d="m19.791,14.678c-8.163,2.693-10.893,6.334-10.947,14.599-.055,8.304,1.843,10.719,10.93,13.909.553.38,1.193.558,1.819.767,1.974-.094,3.88.887,5.88.356,1.489-.375,3.036-.042,4.529-.364.597-.214,1.225-.365,1.705-.819,5.344-.433,10.032-2.697,14.578-5.261,1.722-.971,1.94-3.054.851-4.183-2.149-2.225-1.752-4.677-1.623-7.22,1.033-1.5,2.37-1.839,4.008-1.028.62.913,1.567,1.755,1.794,2.755.48,2.119.923,4.719,3.59,3.98,2.515-.697,5.653-1.68,5.53-5.55-.048-1.52-1.162-3.798,1.785-4.192,1.365-.849,2.679-.997,3.889.279.245,2.25,1.281,2.929,3.416,1.821,2.046-1.061,4.155-2.012,6.541-2.049,2.039-2.121,5.23-.576,7.401-2.281,1.871.029,3.762-.368,5.6.28,7.595,2.497,15.764,4.26,17.907,13.727,1.815,3.006,2.007,5.994-.104,8.955-.731,3.559-3.35,5.639-6.092,7.622-1.498,1.311-3.36.258-4.984.755-2.057.753-4.017.334-5.944-.479l-4.987-4.931c-1.482-1.467-1.793-3.086-.646-4.893q2.464-5.463,9.705-2.906c.905.882.836,1.84.23,2.842-.439.952-1.562,1.581-1.369,2.832.533,3.413,2.707,1.197,4.231,1.209,2.057-.081,3.028-1.544,3.963-3.052.216-.365.434-.728.653-1.09.421-1.923.521-3.793-.876-5.428-.461-.744-.214-1.706-.762-2.423-1.465-2.827-4.259-3.786-6.972-4.859-1.669-2.223-3.892-1.41-6.027-1.077-.953.003-1.907.007-2.86.01-1.642-.269-3.323-1.007-4.826.396-.677.359-1.341,1.003-2.032,1.033-6.314.273-7.773,4.082-7.193,9.45-1.53,1.033-3.048.505-4.566-.035-2.584-4.728-5.156-.356-7.47.265-2.955.794-.727,2.327-.155,3.931.699,1.959,2.917,4.246.407,6.537-1.745,1.46-2.893.748-3.752-1.012-3.529-5.789-3.616-5.567-10.049-2.444-3.626,1.761-7.564,3.157-11.679,3.704-1.926,1.3-4.116.692-6.198.844-2.006.01-4.016-.034-6.025.036-.247.018-.495.035-.742.053-9.46-1.489-16.42-5.945-18.954-15.652-.748-1.579-1.007-3.213-.56-4.925,1.572-2.767-.184-6.16,1.698-8.87,3.081-7.499,9.59-10.616,16.779-12.864.472-.248.951-.262,1.437-.044,2.187.429,4.547-.134,6.59,1.124,7.3.697,10.053,6.249,12.828,11.776,1.103,2.129,1.327,4.359.798,6.68-.198.417-.434.813-.696,1.194-1.363,3.488-3.27,6.492-7.078,7.808-2.536,1.071-5.183,1.091-7.861.811-4.203-.28-6.111-2.974-7.111-6.624-.501-1.672-.585-3.34.056-4.999,3.274-3.715,7.195-4.108,11.052-1.105,1.066,1.864-.518,4.185,1.051,5.962,5.213-2.54,6.244-7.442,2.338-11.714-1.713-1.873-3.613-3.636-6.366-3.956-2.689-.657-5.376-.7-8.06.029Z"/><path class="m" d="m42.792,14.361c-4.042-3.631-5.988-9.31-12.436-8.557-.326.038-.883-.418-1.047-.773-.337-.728.263-1.216.797-1.556.393-.25.909-.348,1.386-.426,4.017-.665,11.538,6.483,11.301,11.312Z"/><path class="l" d="m64.329,21.577l-.266-.924c3.415-.816,6.397-4.088,10.585-2.203-1.42,3.192-4.843,1.126-6.376,3.175-1.314-.044-2.641.908-3.943-.049Z"/><path class="b" d="m96.15,41.166c-.077-.947-.153-1.894-.23-2.842,1.332-1.375,2.739-2.715,1.411-6.124,3.196,4.407,2.583,6.707-1.181,8.965Z"/><path class="n" d="m27.125,2.013c-2.531,1.397-5.059.942-7.599.282,2.463-1.787,5.02-1.363,7.599-.282Z"/><path class="ac" d="m108.868,43.157c1.001-2.974.958-5.96.104-8.955,2.685,2.792,2.644,6.311-.104,8.955Z"/><path class="l" d="m78.816,32.782c2.432-1.954,4.033-1.292,6.213-1.017-1.861,2.3-3.588,1.466-6.213,1.017Z"/><path class="j" d="m41.771,28.466c-.144-.292-.178-.596-.104-.912.348-.507.537-1.085.75-1.653.26-1.424.315-2.839-.191-4.23-.111-.436.011-.793.365-1.073,3.18,2.113,2.814,5.626-.82,7.868Z"/><path class="f" d="m66.662,47.136c.322-3.578,2.6-2.982,5.084-2.93-1.152,2.79-4.003.972-5.084,2.93Z"/><path class="x" d="m103.73,42.057c-.244.087-.496.12-.755.098-.329-2.98-.657-5.961-.986-8.941.855.384.947,1.195,1.12,1.962,1.831,2.15,1.537,4.488.621,6.882Z"/><path class="b" d="m89.14,32.144c2.557-.516,5.065-1.45,8.626.747-3.799-.329-6.212-.538-8.626-.747Z"/><path class="ah" d="m3.209,29.446c-.104,1.65-.207,3.3-.311,4.95-2.501-1.71-2.37-3.827-.968-6.141.409-.242.825-.265,1.249-.034.263.402.285.81.03,1.224Z"/><path class="i" d="m81.659,15.913c-1.41,2.502-3.104,1.58-4.991,1.566,1.408-2.5,3.103-1.574,4.991-1.566Z"/><path class="f" d="m80.932,40.232c1.609,1.69,1.342,2.962.427,4.568-1.602-1.312-1.404-2.643-.427-4.568Z"/><path class="o" d="m3.209,29.446c-.12-.37-.24-.74-.36-1.11-.354-2.261-.579-4.519.127-6.761.353-.325.707-.65,1.06-.974-.136,2.961.647,6.007-.827,8.845Z"/><path class="t" d="m85.21,20.753c-2.382.575-4.764,1.149-7.146,1.724,1.187-2.953,3.971-1.3,5.934-2.015.516-.361.92-.264,1.212.291Z"/><path class="f" d="m18.341,4.783c-.481.337-.923.853-1.459.98-1.019.24-2.045-.012-2.214-1.2-.039-.271.919-.87,1.489-.992.825-.176,1.584.199,2.185,1.212Z"/><path class="c" d="m23.21,54.307c-.803,1.649-1.854,1.665-2.964,1.088-.297-.155-.577-1.032-.513-1.076,1.013-.694,2.094-.55,3.477-.012Z"/><path class="an" d="m56.545,47.855c1.133.765,2.3,1.407,3.752,1.012.042,1.023-.166,2.027-1.422,1.932-1.725-.13-2.354-1.339-2.33-2.944Z"/><path class="aq" d="m99.012,45.207c-1.26,1.776-3.049,1.581-4.636.857-1.914-.873-.286-1.469.405-2.066,1.034,1.693,2.815.825,4.231,1.209Z"/><path class="u" d="m19.791,14.678c2.681-1.433,5.367-1.82,8.06-.029-2.687.01-5.373.02-8.06.029Z"/><path class="l" d="m67.714,16.842c-1.209,1.29-2.372.861-3.848.406,1.241-1.8,2.356-1.822,3.848-.406Z"/><path class="au" d="m26.832,37.084c2.476-1.64,5.241-.533,7.861-.811-.282.933-1.156.91-1.875,1.138-2.042.464-4.081.517-6.117-.037l.131-.29Z"/><path class="ar" d="m42.759,26.6c-.364.318-.728.636-1.092.954,0-2.321.001-4.642.002-6.962.308-.04.615-.038.922.007-.025.308.015.608.12.899.567,1.696.497,3.398.047,5.103Z"/><path class="s" d="m28.842,8.816c-2.362-.213-4.847.715-7.074-.749,1.953-1.16,3.995-.695,6.032-.327.347.358.694.717,1.042,1.075Z"/><path class="ak" d="m34.589,49.88c-2.043,2.05-4.571.756-6.879.978-.125-.583.084-1.003.626-1.262,2.09-.025,4.2-.474,6.253.284Z"/><path class="w" d="m34.589,49.88c-2.255.109-4.511.219-6.766.328-.125-.189-.25-.378-.375-.566.136-.181.273-.362.409-.543,2.32.005,4.64.011,6.96.016-.036.267-.112.521-.228.765Z"/><path class="r" d="m88.99,27.278c2.25-.962,4.53-2.088,6.027,1.077-2.009-.359-4.018-.718-6.027-1.077Z"/><path class="ae" d="m2.975,21.575c-.042,2.254-.084,4.507-.126,6.761,0,0-.464.02-.464.02,0,0-.454-.099-.454-.1.502-2.204-.716-4.671,1.045-6.681Z"/><path class="al" d="m27.8,7.74c-2.011.109-4.021.218-6.032.327-.318-.11-.636-.221-.953-.331,2.329-1.296,4.658-1.241,6.985.004Z"/><path class="ag" d="m85.21,20.753c-.404-.097-.808-.194-1.212-.291,2.358-1.166,4.715-1.443,7.067.014-1.952.092-3.903.184-5.855.277Z"/><path class="q" d="m27.767,45.002c-2.317-.248-4.829.982-6.933-.89,1.646-.854,3.341-.546,5.038-.206.28.119.56.118.84-.002.4-.21.798-.197,1.196.006.236.399.189.764-.14,1.093Z"/><path class="aj" d="m27.757,44.267c-.348-.121-.696-.243-1.045-.364,2.201-1.411,4.649-.639,6.994-.778-.328.345-.656.69-.985,1.035-1.641.673-3.3.524-4.965.107Z"/><path class="ap" d="m67.514,38.132c1.529-.917,3.041.459,4.566.035-1.531,1.179-3.07,3.292-4.566-.035Z"/><path class="aa" d="m86.215,41.231c-.359,1.706.169,3.296.646,4.893-2.647-1.316-2.468-2.999-.646-4.893Z"/><path class="k" d="m.808,16.792c.427-.214.805-.553,1.199-.571.858-.039.986.649.803,1.249-.094.31-.602.496-.923.738-.252-.331-.504-.662-1.079-1.416Z"/><path class="z" d="m26.701,37.375c2.039.012,4.078.024,6.117.037-2.049,1.67-4.085,1.147-6.117-.037Z"/><path class="d" d="m31.88,30.318c-2.162-1.674-.8-3.958-1.051-5.962,2.007,1.701.462,4.016,1.051,5.962Z"/><path class="l" d="m9.604,48.976c.743.122,1.604-.148,1.546.81-.019.316-.591.76-.983.859-.711.18-1.309-.222-1.379-.945-.022-.234.58-.526.816-.724Z"/><path class="ab" d="m27.823,50.208c-.052.214-.09.431-.113.651-1.996.039-4.089.76-5.857-.81,0,0-.219-.202-.219-.202l.156-.253c1.979-.075,3.962-.336,5.924.168l.11.446Z"/><path class="h" d="m15.737,52.102c-.607.289-.982.615-1.36.617-.704.005-1.177-.456-.844-1.149.128-.268.799-.441,1.178-.381.324.051.585.498,1.027.913Z"/><path class="p" d="m91.848,51.055c2.083.01,4.166.021,6.249.031.198.213.263.424.194.634-.069.209-.137.314-.204.314l-.101-.05c-1.683.731-3.368.718-5.054.012-.361-.314-.723-.627-1.084-.941Z"/><path class="ad" d="m92.933,51.996c1.685-.004,3.369-.008,5.054-.012-1.68,1.955-3.365,1.92-5.054.012Z"/><path class="ai" d="m25.872,43.905c-1.679.069-3.358.138-5.038.206-.353-.309-.707-.617-1.06-.926,2.082-.171,4.198-.62,6.098.719Z"/><path class="v" d="m64.329,21.577c1.318-.241,2.639-.794,3.943.048-.055.36-.11.72-.165,1.08-1.296-.093-2.593-.186-3.889-.279-.002-.288.035-.571.111-.849Z"/><path class="f" d="m13.658,7.346c-.911.286-1.3.513-1.683.504-.565-.014-1.433.16-1.23-.88.042-.217.53-.544.738-.497.584.133,1.13.434,2.176.873Z"/><path class="av" d="m81.304,27.683c1.463-1.871,3.109-1.557,4.826-.396-1.609.132-3.217.264-4.826.396Z"/><path class="l" d="m58.321,26.865c-.146.598-.281,1.145-.882.776-.325-.2-.608-.685-.648-1.068-.051-.498.36-.905.876-.635.325.17.478.663.653.927Z"/><path class="af" d="m19.776,25.461c-.019,1.666-.037,3.333-.056,4.999-1.335-1.681-1.617-3.351.056-4.999Z"/><path class="am" d="m98.088,52.034c-.028-.316-.025-.632.009-.948,1.56-.102,3.119-.204,4.679-.307-1.185,1.801-3.085.984-4.688,1.255Z"/><path class="y" d="m51.52,25.432c-1.412.051-2.795.216-4.008,1.028.684-2.835,2.222-2.405,4.008-1.028Z"/><path class="at" d="m103.73,42.057c.704-2.374.057-4.629-.621-6.882,2.97,2.049,2.371,4.415.621,6.882Z"/><path class="d" d="m27.713,49.761c-1.988.411-3.961.276-5.924-.168,1.94-1.149,4.037-.422,6.068-.496-.045.222-.093.443-.144.663Z"/><path class="ap" d="m27.757,44.267c1.655-.036,3.31-.071,4.965-.107-1.434,1.531-3.268.765-4.954.842-.003-.246-.007-.491-.011-.736Z"/><path class="as" d="m42.759,26.6c-.016-1.701-.032-3.402-.047-5.103,1.306,1.689,1.236,3.391.047,5.103Z"/></svg>